<?xml version="1.0" encoding="utf-8"?>
<!-- Generator: Adobe Illustrator 23.0.3, SVG Export Plug-In . SVG Version: 6.00 Build 0)  -->
<svg version="1.1" id="Capa_1" xmlns="http://www.w3.org/2000/svg" xmlns:xlink="http://www.w3.org/1999/xlink" x="0px" y="0px"
	 viewBox="0 0 533.3 533.3" style="enable-background:new 0 0 533.3 533.3;" xml:space="preserve">
<style type="text/css">
	.st0{fill:#FF4500;}
	.st1{fill:#FFFFFF;}
</style>
<g>
	<path class="st0" d="M470.5,103.9l-74.4-74.4C379.9,13.3,347.9,0,325,0H75C52.1,0,33.3,18.8,33.3,41.7v450
		c0,22.9,18.8,41.7,41.7,41.7h383.3c22.9,0,41.7-18.8,41.7-41.7V175C500,152.1,486.7,120.1,470.5,103.9z"/>
	<path d="M366.7,48.2c2.3,1.6,4.3,3.2,5.9,4.8l74.4,74.4c1.6,1.6,3.3,3.6,4.8,5.9h-85.1V48.2z"/>
	<path d="M466.7,491.7c0,4.5-3.8,8.3-8.3,8.3H75c-4.5,0-8.3-3.8-8.3-8.3v-450c0-4.5,3.8-8.3,8.3-8.3h250c2.5,0,5.3,0.3,8.3,0.9
		v132.4h132.4c0.6,3,0.9,5.8,0.9,8.3V491.7z"/>
	<path class="st1" d="M447,127.4L372.6,53c-1.6-1.6-3.6-3.3-5.9-4.8v85.1h85.1C450.2,131.1,448.6,129.1,447,127.4z"/>
	<path class="st1" d="M333.3,166.7V34.2c-3-0.6-5.8-0.9-8.3-0.9H75c-4.5,0-8.3,3.8-8.3,8.3v450c0,4.5,3.8,8.3,8.3,8.3h383.3
		c4.5,0,8.3-3.8,8.3-8.3V175c0-2.5-0.3-5.3-0.9-8.3H333.3z"/>
	<path d="M233.3,467.2c-36.7,0-66.7-26.8-66.7-59.5v-44.6c0-8.2-7.5-14.9-16.7-14.9h-16.7v-29.7H150c9.2,0,16.7-6.7,16.7-14.9V259
		c0-32.7,30-59.5,66.7-59.5v29.7c-8.8,0-17.2,3.1-23.5,8.8c-6.3,5.7-9.8,13.1-9.8,21v59.5c0,8.2-7.5,14.9-16.7,14.9
		c9.2,0,16.7,6.7,16.7,14.9v59.5c0,7.9,3.5,15.3,9.8,21c6.3,5.7,14.7,8.8,23.5,8.8V467.2z"/>
	<path d="M400,348.2h-16.7c-9.2,0-16.7,6.7-16.7,14.9v44.6c0,32.7-30,59.5-66.7,59.5v-29.7c8.8,0,17.2-3.1,23.5-8.8
		c6.3-5.7,9.8-13.1,9.8-21v-59.5c0-8.2,7.5-14.9,16.7-14.9c-9.2,0-16.7-6.7-16.7-14.9V259c0-7.9-3.5-15.3-9.8-21
		c-6.3-5.7-14.7-8.8-23.5-8.8v-29.7c36.7,0,66.7,26.8,66.7,59.5v44.6c0,8.2,7.5,14.9,16.7,14.9H400V348.2z"/>
	<path d="M366.7,303.6V259c0-32.7-30-59.5-66.7-59.5v29.7c8.8,0,17.2,3.1,23.5,8.8c6.3,5.6,9.8,13.1,9.8,21v59.5
		c0,8.2,7.5,14.9,16.7,14.9c-9.2,0-16.7,6.7-16.7,14.9v59.5c0,7.9-3.5,15.3-9.8,21c-6.3,5.7-14.7,8.8-23.5,8.8v29.7
		c36.7,0,66.7-26.8,66.7-59.5v-44.6c0-8.2,7.5-14.9,16.7-14.9H400v-29.7h-16.7C374.1,318.5,366.7,311.8,366.7,303.6z"/>
	<path d="M200,407.7v-59.5c0-8.2-7.5-14.9-16.7-14.9c9.2,0,16.7-6.7,16.7-14.9V259c0-7.9,3.5-15.3,9.8-21c6.3-5.7,14.7-8.8,23.5-8.8
		v-29.7c-36.7,0-66.7,26.8-66.7,59.5v44.6c0,8.2-7.5,14.9-16.7,14.9h-16.7v29.7H150c9.2,0,16.7,6.7,16.7,14.9v44.6
		c0,32.7,30,59.5,66.7,59.5v-29.7c-8.8,0-17.2-3.1-23.5-8.8C203.5,423,200,415.6,200,407.7z"/>
</g>
</svg>
