<?xml version="1.0" encoding="utf-8"?>
<!-- Generator: Adobe Illustrator 23.0.3, SVG Export Plug-In . SVG Version: 6.00 Build 0)  -->
<svg version="1.1" id="Capa_1" xmlns="http://www.w3.org/2000/svg" xmlns:xlink="http://www.w3.org/1999/xlink" x="0px" y="0px"
	 viewBox="0 0 92 92" style="enable-background:new 0 0 92 92;" xml:space="preserve">
<style type="text/css">
	.st0{fill:#FF4500;}
</style>
<g>
	<path class="st0" d="M43.8,33.1C37,21,29.8,11.2,29.2,10.5c-11,5.2-19.1,15.3-21.7,27.4C8.6,37.9,25,38.1,43.8,33.1z M48.7,46.3
		c0.5-0.2,1-0.3,1.5-0.5c-1-2.2-2.1-4.5-3.2-6.7c-20.2,6.1-39.6,5.6-40.3,5.6c0,0.4,0,0.8,0,1.2c0,10.1,3.8,19.3,10.1,26.3
		c0,0,0,0,0,0S27.5,53.2,48.7,46.3z M21.9,77L21.9,77c-0.3-0.2-0.6-0.5-0.9-0.7C21.5,76.7,21.9,77,21.9,77z M36.6,7.9
		c0,0-0.1,0-0.1,0C36.5,7.9,36.6,7.9,36.6,7.9L36.6,7.9z M71.9,16.5C65,10.4,55.9,6.7,46,6.7c-3.2,0-6.3,0.4-9.3,1.1
		c0.6,0.8,8,10.6,14.7,22.9C66.2,25.2,71.8,16.7,71.9,16.5z M46,92C20.6,92,0,71.4,0,46C0,20.6,20.6,0,46,0c25.4,0,46,20.6,46,46
		C92,71.4,71.4,92,46,92z M52.7,52.4C29.6,60.5,22,76.6,21.9,77c6.7,5.2,15,8.3,24.1,8.3c5.4,0,10.6-1.1,15.3-3.1
		c-0.6-3.4-2.9-15.5-8.4-29.8C52.9,52.4,52.8,52.4,52.7,52.4z M54.5,36.6c0.9,1.9,1.8,3.8,2.6,5.7c0.3,0.7,0.6,1.4,0.8,2
		c13.6-1.7,26.9,1.2,27.4,1.3c-0.1-9.3-3.4-17.9-8.9-24.6C76.3,21.2,70,30.3,54.5,36.6z M60.3,50.5c5.2,14.2,7.3,25.7,7.6,28.1
		c8.8-6,15.1-15.4,16.8-26.4C84,52,73,48.5,60.3,50.5z"/>
</g>
</svg>
