<?xml version="1.0" encoding="utf-8"?>
<!-- Generator: Adobe Illustrator 23.0.3, SVG Export Plug-In . SVG Version: 6.00 Build 0)  -->
<svg version="1.1" id="Capa_1" xmlns="http://www.w3.org/2000/svg" xmlns:xlink="http://www.w3.org/1999/xlink" x="0px" y="0px"
	 viewBox="0 0 753.4 753.4" style="enable-background:new 0 0 753.4 753.4;" xml:space="preserve">
<style type="text/css">
	.st0{fill:#FF4500;}
</style>
<g>
	<g id="_x31__21_">
		<g>
			<path class="st0" d="M517.9,518H235.4c-13,0-23.5,10.5-23.5,23.5s10.5,23.5,23.5,23.5h282.5c13,0,23.5-10.5,23.5-23.5
				S530.9,518,517.9,518z M494.4,0.1v0.7c-3,0-15.6-1.2-47.1-0.7H164.8c-52,0-94.2,42.2-94.2,94.2v564.9c0,52,42.2,94.2,94.2,94.2
				h423.7c52,0,94.2-42.2,94.2-94.2V188.4L494.4,0.1z M635.6,659.2c0,26-21.1,47.1-47.1,47.1H164.8c-26,0-47.1-21.1-47.1-47.1V94.3
				c0-26,21.1-47.1,47.1-47.1h281.8c-0.4,56.4,0.7,94.2,0.7,94.2c0,52,42.2,94.2,94.2,94.2c0,0,39.3,0,94.2,0L635.6,659.2
				L635.6,659.2z M541.4,188.4c-26,0-47.1-21.1-47.1-47.1c0,0,0-38.1,0-94.2l141.2,141.2L541.4,188.4L541.4,188.4z M517.9,376.7
				H235.4c-13,0-23.5,10.5-23.5,23.5s10.5,23.5,23.5,23.5h282.5c13,0,23.5-10.5,23.5-23.5S530.9,376.7,517.9,376.7z"/>
		</g>
	</g>
</g>
</svg>
