<?xml version="1.0" encoding="utf-8"?>
<!-- Generator: Adobe Illustrator 23.0.3, SVG Export Plug-In . SVG Version: 6.00 Build 0)  -->
<svg version="1.1" id="Capa_1" xmlns="http://www.w3.org/2000/svg" xmlns:xlink="http://www.w3.org/1999/xlink" x="0px" y="0px"
	 viewBox="0 0 512 512" style="enable-background:new 0 0 512 512;" xml:space="preserve">
<style type="text/css">
	.st0{fill:#FF4500;}
	.st1{fill:#FCFCFC;}
</style>
<polygon class="st0" points="30.3,0 71.3,460.8 255.7,512 440.6,460.7 481.7,0 "/>
<polygon points="405.4,431.4 256.8,472.6 256.8,472.8 256.4,472.7 256,472.8 256,472.6 107.4,431.4 72.3,37.7 440.5,37.7 "/>
<polygon class="st1" points="107.4,431.4 256,472.6 256,472.8 256.4,472.7 256.8,472.8 256.8,472.6 405.4,431.4 440.5,37.7 
	72.3,37.7 "/>
<polygon points="397.4,94.2 392.3,150.7 392.1,150.7 176,150.7 181.2,208.6 387.2,208.6 371.7,382.1 256,414.2 255.9,414.2 
	255.8,414.2 255.7,414.2 140,382.1 132,293.3 188.8,293.3 192.8,338.5 255.7,355.4 255.9,355.4 318.8,338.4 325.4,265.1 
	325.4,265.1 129.5,265.1 114.3,94.2 "/>
<polygon points="325.4,265.1 325.4,265.1 318.8,338.4 255.9,355.4 255.7,355.4 192.8,338.5 188.8,293.3 132,293.3 140,382.1 
	255.7,414.2 255.8,414.2 255.9,414.2 256,414.2 371.7,382.1 387.2,208.6 181.2,208.6 176,150.7 392.1,150.7 392.3,150.7 397.4,94.2 
	114.3,94.2 129.5,265.1 "/>
</svg>
