<?xml version="1.0" encoding="utf-8"?>
<!-- Generator: Adobe Illustrator 23.0.3, SVG Export Plug-In . SVG Version: 6.00 Build 0)  -->
<svg version="1.1" id="Capa_1" xmlns="http://www.w3.org/2000/svg" xmlns:xlink="http://www.w3.org/1999/xlink" x="0px" y="0px"
	 viewBox="0 0 54 54" style="enable-background:new 0 0 54 54;" xml:space="preserve">
<style type="text/css">
	.st0{fill:#FF4500;stroke:#FF4500;stroke-width:2;stroke-miterlimit:10;}
	.st1{stroke:#000000;stroke-width:2;stroke-miterlimit:10;}
</style>
<g>
	<path class="st0" d="M41.8,0H12.2C5.5,0,0,5.5,0,12.2v29.6C0,48.5,5.5,54,12.2,54h29.6C48.5,54,54,48.5,54,41.8V12.2
		C54,5.5,48.5,0,41.8,0z M52,41.8C52,47.4,47.4,52,41.8,52H12.2C6.6,52,2,47.4,2,41.8V12.2C2,6.6,6.6,2,12.2,2h29.6
		C47.4,2,52,6.6,52,12.2V41.8z"/>
	<path class="st1" d="M19.8,12l-8.2,28h3.1l2.6-9h8.3l2.8,9h3.2l-8.5-28H19.8z M18.1,28l3.4-11.4L25,28H18.1z"/>
	<path class="st1" d="M36.9,11.6c-0.4,0-0.8,0.2-1.2,0.5c-0.3,0.3-0.5,0.7-0.5,1.1s0.2,0.8,0.5,1.1s0.7,0.5,1.2,0.5s0.8-0.2,1.1-0.5
		s0.5-0.7,0.5-1.2s-0.2-0.8-0.5-1.2S37.3,11.6,36.9,11.6z"/>
	<rect x="35.4" y="20" class="st1" width="2.9" height="20"/>
</g>
</svg>
