<?xml version="1.0" encoding="utf-8"?>
<!-- Generator: Adobe Illustrator 23.0.3, SVG Export Plug-In . SVG Version: 6.00 Build 0)  -->
<svg version="1.1" id="Capa_1" xmlns="http://www.w3.org/2000/svg" xmlns:xlink="http://www.w3.org/1999/xlink" x="0px" y="0px"
	 viewBox="0 0 612 612" style="enable-background:new 0 0 612 612;" xml:space="preserve">
<style type="text/css">
	.st0{stroke:#000000;stroke-width:11;stroke-miterlimit:10;}
	.st1{fill:#FF4500;stroke:#FF4500;stroke-width:7;stroke-miterlimit:10;}
</style>
<g>
	<g>
		<path class="st0" d="M286.9,296.4h-19.1c-21,0-38.3,17.2-38.3,38.3v28.7v66.9h19.1v-57.4H306v57.4h19.1v-57.4v-38.3
			C325.1,313.6,307.9,296.4,286.9,296.4z M306,353.8h-57.4v-19.1c0-11.5,7.6-19.1,19.1-19.1h19.1c11.5,0,19.1,7.6,19.1,19.1
			L306,353.8L306,353.8z"/>
		<path class="st0" d="M191.3,392.1c0,9.6-7.6,19.1-19.1,19.1H153c-11.5,0-19.1-7.6-19.1-19.1V373h-19.1v19.1
			c0,21,17.2,38.3,38.3,38.3h19.1c21,0,38.3-17.2,38.3-38.3v-95.6h-19.1L191.3,392.1L191.3,392.1z"/>
		<polygon class="st0" points="392.1,395.9 363.4,296.4 344.3,296.4 382.5,430.3 392.1,430.3 401.6,430.3 439.9,296.4 420.8,296.4 
					"/>
		<path class="st1" d="M554.6,239.1H363.4v-57.4L248.6,47.8H38.3C17.2,47.8,0,65,0,86.1V526c0,21,17.2,38.3,38.3,38.3h286.9
			c21,0,38.3-17.2,38.3-38.3v-38.3h191.3c32.5,0,57.4-24.9,57.4-57.4V296.4C612,263.9,587.1,239.1,554.6,239.1z M248.6,76.5
			l89.9,105.2h-70.8c-9.6,0-19.1-9.6-19.1-19.1V76.5z M344.3,525.9c0,9.6-7.6,19.1-19.1,19.1H38.3c-9.6,0-19.1-7.7-19.1-19.1V86.1
			c0-9.6,7.6-19.1,19.1-19.1h191.3v95.6c0,21,17.2,38.3,38.3,38.3h76.5v38.3H114.8c-32.5,0-57.4,24.9-57.4,57.4v133.9
			c0,32.5,24.9,57.4,57.4,57.4h229.5V525.9z M592.9,430.3c0,21-17.2,38.3-38.3,38.3H114.8c-21,0-38.3-17.2-38.3-38.3V296.4
			c0-21,17.2-38.3,38.3-38.3h439.9c21,0,38.3,17.2,38.3,38.3L592.9,430.3L592.9,430.3z"/>
		<path class="st0" d="M516.4,296.4h-19.1c-21,0-38.3,17.2-38.3,38.3v28.7v66.9h19.1v-57.4h57.4v57.4h19.1v-57.4v-38.3
			C554.6,313.6,537.4,296.4,516.4,296.4z M535.5,353.8h-57.4v-19.1c0-11.5,7.6-19.1,19.1-19.1h19.1c11.5,0,19.1,7.6,19.1,19.1v19.1
			H535.5z"/>
	</g>
</g>
</svg>
