<?xml version="1.0" encoding="utf-8"?>
<!-- Generator: Adobe Illustrator 23.0.3, SVG Export Plug-In . SVG Version: 6.00 Build 0)  -->
<svg version="1.1" id="Capa_1" xmlns="http://www.w3.org/2000/svg" xmlns:xlink="http://www.w3.org/1999/xlink" x="0px" y="0px"
	 viewBox="0 0 54 54" style="enable-background:new 0 0 54 54;" xml:space="preserve">
<style type="text/css">
	.st0{stroke:#FF4500;stroke-width:2;stroke-miterlimit:10;}
	.st1{fill:#010002;}
</style>
<g>
	<path class="st0" d="M41.8,0H12.2C5.5,0,0,5.5,0,12.2v29.6C0,48.5,5.5,54,12.2,54h29.6C48.5,54,54,48.5,54,41.8V12.2
		C54,5.5,48.5,0,41.8,0z M52,41.8C52,47.4,47.4,52,41.8,52H12.2C6.6,52,2,47.4,2,41.8V12.2C2,6.6,6.6,2,12.2,2h29.6
		C47.4,2,52,6.6,52,12.2V41.8z"/>
</g>
<g>
	<g>
		<g>
			<g>
				<path class="st1" d="M14.9,17.7h5c0.3,0,0.6,0.3,0.6,0.6v21.9c0,0.3-0.3,0.6-0.6,0.6h-5c-0.3,0-0.6-0.3-0.6-0.6V18.3
					C14.3,17.9,14.6,17.7,14.9,17.7z"/>
				<path class="st1" d="M33.4,17.7c-1.6,0-2.6,0.5-3.4,1.1c-0.4,0.3-0.9,0-0.9-0.5l0,0c0-0.3-0.3-0.6-0.6-0.6h-5.1
					c-0.3,0-0.6,0.3-0.6,0.6v21.9c0,0.3,0.3,0.6,0.6,0.6h5.1c0.3,0,0.6-0.3,0.6-0.6v-14c0,0-0.2-2.9,3.2-2.9c2.1,0,3.1,1.2,3.1,2.9
					v14c0,0.3,0.3,0.6,0.6,0.6h5.4c0.3,0,0.6-0.3,0.6-0.6V26.4C41.9,18.5,35.5,17.7,33.4,17.7z"/>
				<circle class="st1" cx="17.4" cy="12.4" r="3.2"/>
			</g>
		</g>
	</g>
</g>
</svg>
