<?xml version="1.0" encoding="utf-8"?>
<!-- Generator: Adobe Illustrator 23.0.3, SVG Export Plug-In . SVG Version: 6.00 Build 0)  -->
<svg version="1.1" id="Capa_1" xmlns="http://www.w3.org/2000/svg" xmlns:xlink="http://www.w3.org/1999/xlink" x="0px" y="0px"
	 viewBox="0 0 54 54" style="enable-background:new 0 0 54 54;" xml:space="preserve">
<style type="text/css">
	.st0{stroke:#FF4500;stroke-width:2;stroke-miterlimit:10;}
	.st1{stroke:#000000;stroke-width:3;stroke-miterlimit:10;}
</style>
<g>
	<path class="st0" d="M41.8,0H12.2C5.5,0,0,5.5,0,12.2v29.6C0,48.5,5.5,54,12.2,54h29.6C48.5,54,54,48.5,54,41.8V12.2
		C54,5.5,48.5,0,41.8,0z M52,41.8C52,47.4,47.4,52,41.8,52H12.2C6.6,52,2,47.4,2,41.8V12.2C2,6.6,6.6,2,12.2,2h29.6
		C47.4,2,52,6.6,52,12.2V41.8z"/>
	<path class="st1" d="M19.9,12h-9.6v28h2.9v-9.2h7c1.4,0,2.5-0.2,3.5-0.7s1.7-1.1,2.2-1.7c0.5-0.7,0.9-1.5,1.1-2.5
		c0.3-1,0.4-1.9,0.5-2.6s0.1-1.5,0.1-2.4c0-2.6-0.6-4.8-1.9-6.4C24.5,12.8,22.5,12,19.9,12z M24.7,22.6c0,0.4-0.1,1-0.3,1.8
		c-0.2,0.8-0.4,1.4-0.7,1.8c-0.3,0.4-0.8,0.8-1.5,1.2c-0.7,0.4-1.5,0.6-2.4,0.6h-6.7V14.8h6.5c3.4,0,5.1,2,5.1,6.1
		C24.8,21.6,24.8,22.2,24.7,22.6z"/>
	<path class="st1" d="M41.2,29.4c-1.1-0.4-2.1-0.8-3.2-1.2c-1.1-0.3-2-0.8-2.9-1.3s-1.3-1.2-1.3-2.1c0-0.8,0.3-1.5,1-2
		s1.7-0.8,3.1-0.8c1.4,0,2.5,0.3,3.4,1l0.9-2.5l-0.5-0.3c-0.3-0.2-0.9-0.4-1.6-0.6c-0.7-0.2-1.5-0.3-2.4-0.3c-2.4,0-4.2,0.6-5.3,1.7
		s-1.6,2.4-1.6,3.8s0.5,2.5,1.5,3.4c0.8,0.8,1.7,1.4,2.8,1.8s2.1,0.7,3.1,1.1c1,0.3,1.9,0.8,2.6,1.4c0.7,0.6,1.1,1.3,1.1,2.3
		s-0.4,1.7-1.3,2.2c-0.8,0.5-1.8,0.8-3,0.8s-2.2-0.3-3-0.8c-0.9-0.5-1.4-1.3-1.5-2.3l-2.8,0.1c0.1,1.6,0.7,2.9,2,4s3.1,1.6,5.4,1.6
		c2.3,0,4.1-0.6,5.3-1.7c1.2-1.1,1.8-2.4,1.8-3.9s-0.4-2.7-1.1-3.6S42.3,29.9,41.2,29.4z"/>
</g>
</svg>
