<?xml version="1.0" encoding="utf-8"?>
<!-- Generator: Adobe Illustrator 23.0.3, SVG Export Plug-In . SVG Version: 6.00 Build 0)  -->
<svg version="1.1" id="Capa_1" xmlns="http://www.w3.org/2000/svg" xmlns:xlink="http://www.w3.org/1999/xlink" x="0px" y="0px"
	 viewBox="0 0 48 48" style="enable-background:new 0 0 48 48;" xml:space="preserve">
<style type="text/css">
	.st0{fill:#FF4500;stroke:#FF4500;stroke-width:2;stroke-miterlimit:10;}
</style>
<g>
	<g id="Pinterest">
		<path d="M18,39.4c-0.1,0-0.3,0-0.4-0.1c-0.8-0.3-1.2-1,0.1-7.9c0.7-3.5,1.6-7.1,1.8-7.7c0.1-0.4,0-1-0.1-1.6c-0.2-0.9-0.3-1.9,0-3
			c0.4-1.3,1.5-2.1,3-2.1s3.2,1,3.2,3c0,1.2-0.4,2.4-0.7,3.4c-0.5,1.6-0.7,2.3-0.1,2.7c0.3,0.3,0.7,0.4,1,0.4c1.2,0,2.4-1.1,2.9-2
			c0.9-1.5,1.6-4.8,0-7.1c-1.5-2.1-3.7-2.6-5.2-2.6c-2.1,0-4.4,0.9-5.4,2.2c-1.1,1.4-1.6,2.9-1.4,4.6c0.1,0.9,0.5,1.8,0.8,2.5
			c0.5,1.2,1.3,2.7-0.6,3.6c-0.9,0.4-2,0-2.9-1.1c-1.4-1.8-2.5-5.4-1.7-9C13.6,12,19,9.5,23.9,9.5c6.2,0,10.8,3.7,11.5,9.4
			c0.8,5.7-1.6,10.5-6,12.3c-1.1,0.4-2.2,0.7-3.1,0.7c-1.6,0-2.7-0.6-3.5-1.2C20.9,36.4,19.3,39.4,18,39.4z"/>
		<path class="st0" d="M37.3,48H11.9C4.3,48,0,44,0,37.1v-25C0,4.9,4.3,0,10.6,0h27.6C42.9,0,48,4.5,48,11.8v25.1
			C48,43.1,43.3,48,37.3,48z M10.6,2C4.3,2,2,7.5,2,12.1V37c0,7.4,5.4,8.9,9.9,8.9h25.4c5,0,8.7-3.9,8.7-9.1v-25c0-6-4-9.8-7.8-9.8
			C38.2,2,10.6,2,10.6,2z"/>
	</g>
</g>
</svg>
